<svg xmlns="http://www.w3.org/2000/svg" version="1.1" xmlns:xlink="http://www.w3.org/1999/xlink" xmlns:svgjs="http://svgjs.dev/svgjs" width="340" height="530" preserveAspectRatio="none" viewBox="0 0 340 530"><g mask="url(&quot;#SvgjsMask1035&quot;)" fill="none"><path d="M-76.78 31.46 a108.24 108.24 0 1 0 216.48 0 a108.24 108.24 0 1 0 -216.48 0z" fill="rgba(209, 217, 225, 0.4)" class="triangle-float3"></path><path d="M-58.63 13.3 a71.93 71.93 0 1 0 143.86 0 a71.93 71.93 0 1 0 -143.86 0z" fill="rgba(209, 217, 225, 0.4)" class="triangle-float1"></path><path d="M-37.31 -8.02 a29.29 29.29 0 1 0 58.58 0 a29.29 29.29 0 1 0 -58.58 0z" fill="rgba(209, 217, 225, 0.4)" class="triangle-float2"></path><path d="M235.23 -8.57 a28.2 28.2 0 1 0 56.4 0 a28.2 28.2 0 1 0 -56.4 0z" fill="rgba(209, 217, 225, 0.4)" class="triangle-float3"></path><path d="M206.91 19.75 a84.84 84.84 0 1 0 169.68 0 a84.84 84.84 0 1 0 -169.68 0z" fill="rgba(209, 217, 225, 0.4)" class="triangle-float2"></path><path d="M215.31 11.36 a68.05 68.05 0 1 0 136.1 0 a68.05 68.05 0 1 0 -136.1 0z" fill="rgba(209, 217, 225, 0.4)" class="triangle-float2"></path><path d="M-55.91 472.59 a66.5 66.5 0 1 0 133 0 a66.5 66.5 0 1 0 -133 0z" fill="rgba(209, 217, 225, 0.4)" class="triangle-float3"></path><path d="M-56.83 473.5 a68.33 68.33 0 1 0 136.66 0 a68.33 68.33 0 1 0 -136.66 0z" fill="rgba(209, 217, 225, 0.4)" class="triangle-float2"></path><path d="M-34.62 451.28 a23.9 23.9 0 1 0 47.8 0 a23.9 23.9 0 1 0 -47.8 0z" fill="rgba(209, 217, 225, 0.4)" class="triangle-float1"></path><path d="M192.85 495.81 a112.96 112.96 0 1 0 225.92 0 a112.96 112.96 0 1 0 -225.92 0z" fill="rgba(209, 217, 225, 0.4)" class="triangle-float2"></path><path d="M215.77 472.89 a67.12 67.12 0 1 0 134.24 0 a67.12 67.12 0 1 0 -134.24 0z" fill="rgba(209, 217, 225, 0.4)" class="triangle-float2"></path><path d="M219.48 469.19 a59.71 59.71 0 1 0 119.42 0 a59.71 59.71 0 1 0 -119.42 0z" fill="rgba(209, 217, 225, 0.4)" class="triangle-float1"></path></g><defs><mask id="SvgjsMask1035"><rect width="340" height="530" fill="#ffffff"></rect></mask><style>
                @keyframes float1 {
                    0%{transform: translate(0, 0)}
                    50%{transform: translate(-10px, 0)}
                    100%{transform: translate(0, 0)}
                }

                .triangle-float1 {
                    animation: float1 5s infinite;
                }

                @keyframes float2 {
                    0%{transform: translate(0, 0)}
                    50%{transform: translate(-5px, -5px)}
                    100%{transform: translate(0, 0)}
                }

                .triangle-float2 {
                    animation: float2 4s infinite;
                }

                @keyframes float3 {
                    0%{transform: translate(0, 0)}
                    50%{transform: translate(0, -10px)}
                    100%{transform: translate(0, 0)}
                }

                .triangle-float3 {
                    animation: float3 6s infinite;
                }
            </style></defs></svg>