<svg xmlns="http://www.w3.org/2000/svg" xmlns:svgjs="http://svgjs.dev/svgjs" xmlns:xlink="http://www.w3.org/1999/xlink" width="1400" height="60" preserveAspectRatio="none" version="1.1" viewBox="0 0 1400 60"><g fill="none" mask="url(&quot;#SvgjsMask1025&quot;)"><path fill="rgba(132, 144, 155, 0.4)" d="M1314.75 25.11 a17.01 17.01 0 1 0 34.02 0 a17.01 17.01 0 1 0 -34.02 0z" class="triangle-float3"/><path fill="rgba(132, 144, 155, 0.4)" d="M436.7 17.81 a14.27 14.27 0 1 0 28.54 0 a14.27 14.27 0 1 0 -28.54 0z" class="triangle-float1"/><path fill="rgba(132, 144, 155, 0.4)" d="M891.48 39.93 a15.61 15.61 0 1 0 31.22 0 a15.61 15.61 0 1 0 -31.22 0z" class="triangle-float2"/><path fill="rgba(132, 144, 155, 0.4)" d="M361.96 48.62 a19.2 19.2 0 1 0 38.4 0 a19.2 19.2 0 1 0 -38.4 0z" class="triangle-float1"/><path fill="rgba(132, 144, 155, 0.4)" d="M96.82 6.88 a16.76 16.76 0 1 0 33.52 0 a16.76 16.76 0 1 0 -33.52 0z" class="triangle-float1"/><path fill="rgba(132, 144, 155, 0.4)" d="M427.7 7.15 a10.51 10.51 0 1 0 21.02 0 a10.51 10.51 0 1 0 -21.02 0z" class="triangle-float2"/><path fill="rgba(132, 144, 155, 0.4)" d="M944.37 16.19 a16.45 16.45 0 1 0 32.9 0 a16.45 16.45 0 1 0 -32.9 0z" class="triangle-float1"/><path fill="rgba(132, 144, 155, 0.4)" d="M876.11 10.39 a16.78 16.78 0 1 0 33.56 0 a16.78 16.78 0 1 0 -33.56 0z" class="triangle-float1"/><path fill="rgba(132, 144, 155, 0.4)" d="M750.67 16.36 a17.44 17.44 0 1 0 34.88 0 a17.44 17.44 0 1 0 -34.88 0z" class="triangle-float2"/><path fill="rgba(132, 144, 155, 0.4)" d="M1292.67 22.81 a14.45 14.45 0 1 0 28.9 0 a14.45 14.45 0 1 0 -28.9 0z" class="triangle-float3"/><path fill="rgba(132, 144, 155, 0.4)" d="M1278.96 51.54 a12.35 12.35 0 1 0 24.7 0 a12.35 12.35 0 1 0 -24.7 0z" class="triangle-float1"/><path fill="rgba(132, 144, 155, 0.4)" d="M1184.3 56.04 a12.71 12.71 0 1 0 25.42 0 a12.71 12.71 0 1 0 -25.42 0z" class="triangle-float2"/><path fill="rgba(132, 144, 155, 0.4)" d="M141.04 18.36 a18.57 18.57 0 1 0 37.14 0 a18.57 18.57 0 1 0 -37.14 0z" class="triangle-float1"/><path fill="rgba(132, 144, 155, 0.4)" d="M621.67 41.27 a18.67 18.67 0 1 0 37.34 0 a18.67 18.67 0 1 0 -37.34 0z" class="triangle-float2"/><path fill="rgba(132, 144, 155, 0.4)" d="M661.99 44.22 a19.03 19.03 0 1 0 38.06 0 a19.03 19.03 0 1 0 -38.06 0z" class="triangle-float2"/><path fill="rgba(132, 144, 155, 0.4)" d="M1167.06 45.23 a14.49 14.49 0 1 0 28.98 0 a14.49 14.49 0 1 0 -28.98 0z" class="triangle-float3"/><path fill="rgba(132, 144, 155, 0.4)" d="M857.36 18.18 a16.09 16.09 0 1 0 32.18 0 a16.09 16.09 0 1 0 -32.18 0z" class="triangle-float1"/><path fill="rgba(132, 144, 155, 0.4)" d="M312.32 58.65 a19.43 19.43 0 1 0 38.86 0 a19.43 19.43 0 1 0 -38.86 0z" class="triangle-float2"/><path fill="rgba(132, 144, 155, 0.4)" d="M34.76 32.69 a15.17 15.17 0 1 0 30.34 0 a15.17 15.17 0 1 0 -30.34 0z" class="triangle-float3"/></g><defs><mask id="SvgjsMask1025"><rect width="1400" height="60" fill="#fff"/></mask><style>@keyframes float1{0%{transform:translate(0,0)}50%{transform:translate(-10px,0)}}@keyframes float2{0%{transform:translate(0,0)}50%{transform:translate(-5px,-5px)}}@keyframes float3{0%{transform:translate(0,0)}50%{transform:translate(0,-10px)}}.triangle-float1{animation:float1 5s infinite}.triangle-float2{animation:float2 4s infinite}.triangle-float3{animation:float3 6s infinite}</style></defs></svg>