<svg xmlns="http://www.w3.org/2000/svg" xmlns:svgjs="http://svgjs.dev/svgjs" xmlns:xlink="http://www.w3.org/1999/xlink" width="500" height="600" preserveAspectRatio="none" version="1.1" viewBox="0 0 500 600"><g fill="none" mask="url(&quot;#SvgjsMask1031&quot;)"><path fill="rgba(132, 144, 155, 0.22)" d="M-72.36 5.69 a78.05 78.05 0 1 0 156.1 0 a78.05 78.05 0 1 0 -156.1 0z" class="triangle-float2"/><path fill="rgba(132, 144, 155, 0.22)" d="M-106.27 39.6 a145.87 145.87 0 1 0 291.74 0 a145.87 145.87 0 1 0 -291.74 0z" class="triangle-float3"/><path fill="rgba(132, 144, 155, 0.22)" d="M-42.82 -23.85 a18.97 18.97 0 1 0 37.94 0 a18.97 18.97 0 1 0 -37.94 0z" class="triangle-float1"/><path fill="rgba(132, 144, 155, 0.22)" d="M302.51 30.83 a128.32 128.32 0 1 0 256.64 0 a128.32 128.32 0 1 0 -256.64 0z" class="triangle-float2"/><path fill="rgba(132, 144, 155, 0.22)" d="M349.02 -15.69 a35.29 35.29 0 1 0 70.58 0 a35.29 35.29 0 1 0 -70.58 0z" class="triangle-float1"/><path fill="rgba(132, 144, 155, 0.22)" d="M327.87 5.46 a77.59 77.59 0 1 0 155.18 0 a77.59 77.59 0 1 0 -155.18 0z" class="triangle-float3"/><path fill="rgba(132, 144, 155, 0.22)" d="M-65.94 499.26 a65.2 65.2 0 1 0 130.4 0 a65.2 65.2 0 1 0 -130.4 0z" class="triangle-float2"/><path fill="rgba(132, 144, 155, 0.22)" d="M-107.9 541.23 a149.13 149.13 0 1 0 298.26 0 a149.13 149.13 0 1 0 -298.26 0z" class="triangle-float3"/><path fill="rgba(132, 144, 155, 0.22)" d="M-34.65 467.98 a2.63 2.63 0 1 0 5.26 0 a2.63 2.63 0 1 0 -5.26 0z" class="triangle-float2"/><path fill="rgba(132, 144, 155, 0.22)" d="M314.65 518.69 a104.04 104.04 0 1 0 208.08 0 a104.04 104.04 0 1 0 -208.08 0z" class="triangle-float2"/><path fill="rgba(132, 144, 155, 0.22)" d="M325.2 508.14 a82.94 82.94 0 1 0 165.88 0 a82.94 82.94 0 1 0 -165.88 0z" class="triangle-float1"/><path fill="rgba(132, 144, 155, 0.22)" d="M298.3 535.02 a136.72 136.72 0 1 0 273.44 0 a136.72 136.72 0 1 0 -273.44 0z" class="triangle-float1"/></g><defs><mask id="SvgjsMask1031"><rect width="500" height="600" fill="#fff"/></mask><style>@keyframes float1{0%{transform:translate(0,0)}50%{transform:translate(-10px,0)}}@keyframes float2{0%{transform:translate(0,0)}50%{transform:translate(-5px,-5px)}}@keyframes float3{0%{transform:translate(0,0)}50%{transform:translate(0,-10px)}}.triangle-float1{animation:float1 5s infinite}.triangle-float2{animation:float2 4s infinite}.triangle-float3{animation:float3 6s infinite}</style></defs></svg>