<svg xmlns="http://www.w3.org/2000/svg" width="1280" height="156" fill="none" viewBox="0 0 1280 156"><g clip-path="url(#clip0_26_149)"><circle cx="217.691" cy="46.566" r="12.941" fill="#50ADBB"/><ellipse cx="217.691" cy="77.625" fill="#50ADBB" fill-opacity=".6" rx="12.941" ry="12.941"/><ellipse cx="217.691" cy="108.684" fill="#50ADBB" fill-opacity=".3" rx="12.941" ry="12.941"/><ellipse cx="248.75" cy="46.566" fill="#50ADBB" fill-opacity=".01" rx="12.941" ry="12.941"/><ellipse cx="248.75" cy="77.625" fill="#50ADBB" fill-opacity=".9" rx="12.941" ry="12.941"/><ellipse cx="248.75" cy="108.684" fill="#50ADBB" fill-opacity=".6" rx="12.941" ry="12.941"/><ellipse cx="279.809" cy="46.566" fill="#50ADBB" fill-opacity=".01" rx="12.941" ry="12.941"/><circle cx="279.809" cy="77.625" r="12.941" fill="#50ADBB" fill-opacity=".01"/><ellipse cx="279.809" cy="108.684" fill="#50ADBB" rx="12.941" ry="12.941"/><path fill="#000" d="M363.2 120.5C374.6 120.5 383.6 113.4 383.6 101C383.6 79.2 351.7 79.1 351.7 64.2C351.7 58.1 356.3 54.4 362.1 54.4C368.4 54.4 373.5 58.1 375 66.8L382 64.8C379.9 53.3 372.4 47.4 361.9 47.4C351.9 47.4 344.2 53.7 344.2 64.3C344.2 83.9 376.1 84.7 376.1 101.1C376.1 108.9 370 113.6 363.1 113.6C355.5 113.6 349.4 108.6 347.9 99.4L340.7 101.5C343 113.5 351.3 120.5 363.2 120.5ZM428.342 76.6H403.042V49H395.542V76.6H388.442V83.7H395.542V119H403.042V83.7H428.342V119H435.842V49H428.342V76.6ZM481.627 120.5C502.727 120.5 519.027 104.7 519.027 84C519.027 63.3 502.727 47.5 481.627 47.5C460.427 47.5 444.227 63.3 444.227 84C444.227 104.7 460.527 120.5 481.627 120.5ZM481.627 113.5C464.627 113.5 451.727 100.9 451.727 84C451.727 67.1 464.627 54.4 481.627 54.4C498.527 54.4 511.527 67.1 511.527 84C511.527 100.9 498.527 113.5 481.627 113.5ZM548.482 49H529.782V84.9H524.282V91.7H529.782V119H537.082V91.7H548.482C566.682 91.7 575.382 82.1 575.382 69.8C575.382 57.6 566.682 49 548.482 49ZM537.082 84.9V55.8H548.182C561.682 55.8 567.782 61 567.782 69.8C567.782 78.9 561.682 84.9 548.282 84.9H537.082ZM602.974 49H584.274V84.9H578.774V91.7H584.274V119H591.574V91.7H602.974C621.174 91.7 629.874 82.1 629.874 69.8C629.874 57.6 621.174 49 602.974 49ZM591.574 84.9V55.8H602.674C616.174 55.8 622.274 61 622.274 69.8C622.274 78.9 616.174 84.9 602.774 84.9H591.574ZM668.566 78.6C668.566 90.7 662.466 95.4 655.366 95.4C648.266 95.4 642.266 90.7 642.266 78.6V49H634.766V78.6C634.766 92.5 642.066 100.4 651.666 102V119H659.166V102C668.666 100.4 676.066 92.5 676.066 78.6V49H668.566V78.6ZM724.499 49H690.699V82.1H681.899V88.8H690.699V119.1H698.199V88.8H722.699V82.1H698.199V55.9H724.499V49ZM737.321 49H729.821V119H764.921V112H737.321V49ZM807.702 120.5C828.802 120.5 845.102 104.7 845.102 84C845.102 63.3 828.802 47.5 807.702 47.5C786.502 47.5 770.302 63.3 770.302 84C770.302 104.7 786.602 120.5 807.702 120.5ZM807.702 113.5C790.702 113.5 777.802 100.9 777.802 84C777.802 67.1 790.702 54.4 807.702 54.4C824.602 54.4 837.602 67.1 837.602 84C837.602 100.9 824.602 113.5 807.702 113.5ZM913.456 77.5C913.456 98.7 908.756 106.9 901.156 114.7C893.556 106.9 888.756 98.7 888.756 77.5V49H881.256V77.5C881.256 98.6 876.456 106.8 868.856 114.7C861.256 106.8 856.556 98.6 856.556 77.5V49H849.056V76.6C849.056 97.9 852.756 109.5 864.456 119H873.356C878.856 114.5 882.556 109.6 885.056 103.4C887.456 109.6 891.156 114.5 896.756 119H905.556C917.256 109.5 920.956 97.9 920.956 76.6V49H913.456V77.5Z"/><circle cx="1001.57" cy="107.309" r="12.941" fill="#50ADBB" transform="rotate(-90 1001.57 107.309)"/><ellipse cx="1032.62" cy="107.309" fill="#50ADBB" fill-opacity=".6" rx="12.941" ry="12.941" transform="rotate(-90 1032.62 107.309)"/><ellipse cx="1063.68" cy="107.309" fill="#50ADBB" fill-opacity=".3" rx="12.941" ry="12.941" transform="rotate(-90 1063.68 107.309)"/><ellipse cx="1001.57" cy="76.25" fill="#50ADBB" fill-opacity=".01" rx="12.941" ry="12.941" transform="rotate(-90 1001.57 76.25)"/><ellipse cx="1032.62" cy="76.25" fill="#50ADBB" fill-opacity=".9" rx="12.941" ry="12.941" transform="rotate(-90 1032.62 76.25)"/><ellipse cx="1063.68" cy="76.25" fill="#50ADBB" fill-opacity=".6" rx="12.941" ry="12.941" transform="rotate(-90 1063.68 76.25)"/><ellipse cx="1001.57" cy="45.191" fill="#50ADBB" fill-opacity=".01" rx="12.941" ry="12.941" transform="rotate(-90 1001.57 45.1911)"/><circle cx="1032.62" cy="45.191" r="12.941" fill="#50ADBB" fill-opacity=".01" transform="rotate(-90 1032.62 45.1911)"/><ellipse cx="1063.68" cy="45.191" fill="#50ADBB" rx="12.941" ry="12.941" transform="rotate(-90 1063.68 45.1911)"/></g><defs><clipPath id="clip0_26_149"><rect width="898" height="134" fill="#fff" transform="translate(191 12)"/></clipPath></defs></svg>