<svg xmlns="http://www.w3.org/2000/svg" version="1.1" xmlns:xlink="http://www.w3.org/1999/xlink" xmlns:svgjs="http://svgjs.dev/svgjs" width="2000" height="40" preserveAspectRatio="none" viewBox="0 0 2000 40"><g mask="url(&quot;#SvgjsMask1046&quot;)" fill="none"><path d="M567 11L583 27" stroke-width="8" stroke="url(&quot;#SvgjsLinearGradient1047&quot;)" stroke-linecap="round" class="BottomRight"></path><path d="M269 1L244 -24" stroke-width="10" stroke="url(&quot;#SvgjsLinearGradient1048&quot;)" stroke-linecap="round" class="TopLeft"></path><path d="M551 8L569 26" stroke-width="6" stroke="url(&quot;#SvgjsLinearGradient1047&quot;)" stroke-linecap="round" class="BottomRight"></path><path d="M213 31L237 55" stroke-width="10" stroke="url(&quot;#SvgjsLinearGradient1047&quot;)" stroke-linecap="round" class="BottomRight"></path><path d="M1252 39L1224 11" stroke-width="6" stroke="url(&quot;#SvgjsLinearGradient1048&quot;)" stroke-linecap="round" class="TopLeft"></path><path d="M1498 16L1521 39" stroke-width="8" stroke="url(&quot;#SvgjsLinearGradient1047&quot;)" stroke-linecap="round" class="BottomRight"></path><path d="M632 7L613 -12" stroke-width="6" stroke="url(&quot;#SvgjsLinearGradient1047&quot;)" stroke-linecap="round" class="BottomRight"></path><path d="M275 23L247 -5" stroke-width="10" stroke="url(&quot;#SvgjsLinearGradient1048&quot;)" stroke-linecap="round" class="TopLeft"></path><path d="M1884 19L1906 41" stroke-width="6" stroke="url(&quot;#SvgjsLinearGradient1047&quot;)" stroke-linecap="round" class="BottomRight"></path><path d="M1055 27L1033 5" stroke-width="8" stroke="url(&quot;#SvgjsLinearGradient1047&quot;)" stroke-linecap="round" class="BottomRight"></path><path d="M1516 25L1500 9" stroke-width="6" stroke="url(&quot;#SvgjsLinearGradient1048&quot;)" stroke-linecap="round" class="TopLeft"></path><path d="M907 18L918 29" stroke-width="8" stroke="url(&quot;#SvgjsLinearGradient1048&quot;)" stroke-linecap="round" class="TopLeft"></path><path d="M1396 27L1372 3" stroke-width="8" stroke="url(&quot;#SvgjsLinearGradient1048&quot;)" stroke-linecap="round" class="TopLeft"></path><path d="M761 4L742 -15" stroke-width="10" stroke="url(&quot;#SvgjsLinearGradient1048&quot;)" stroke-linecap="round" class="TopLeft"></path><path d="M32 34L4 6" stroke-width="10" stroke="url(&quot;#SvgjsLinearGradient1048&quot;)" stroke-linecap="round" class="TopLeft"></path><path d="M1688 17L1660 -11" stroke-width="8" stroke="url(&quot;#SvgjsLinearGradient1047&quot;)" stroke-linecap="round" class="BottomRight"></path><path d="M1794 25L1811 42" stroke-width="10" stroke="url(&quot;#SvgjsLinearGradient1047&quot;)" stroke-linecap="round" class="BottomRight"></path><path d="M694 3L714 23" stroke-width="10" stroke="url(&quot;#SvgjsLinearGradient1048&quot;)" stroke-linecap="round" class="TopLeft"></path><path d="M693 8L710 25" stroke-width="6" stroke="url(&quot;#SvgjsLinearGradient1047&quot;)" stroke-linecap="round" class="BottomRight"></path><path d="M136 2L150 16" stroke-width="8" stroke="url(&quot;#SvgjsLinearGradient1048&quot;)" stroke-linecap="round" class="TopLeft"></path><path d="M1786 38L1800 52" stroke-width="8" stroke="url(&quot;#SvgjsLinearGradient1048&quot;)" stroke-linecap="round" class="TopLeft"></path><path d="M745 16L716 -13" stroke-width="6" stroke="url(&quot;#SvgjsLinearGradient1048&quot;)" stroke-linecap="round" class="TopLeft"></path><path d="M259 0L283 24" stroke-width="10" stroke="url(&quot;#SvgjsLinearGradient1048&quot;)" stroke-linecap="round" class="TopLeft"></path><path d="M1009 34L997 22" stroke-width="10" stroke="url(&quot;#SvgjsLinearGradient1048&quot;)" stroke-linecap="round" class="TopLeft"></path><path d="M1812 20L1793 1" stroke-width="10" stroke="url(&quot;#SvgjsLinearGradient1048&quot;)" stroke-linecap="round" class="TopLeft"></path><path d="M1185 19L1203 37" stroke-width="10" stroke="url(&quot;#SvgjsLinearGradient1048&quot;)" stroke-linecap="round" class="TopLeft"></path><path d="M900 13L883 -4" stroke-width="8" stroke="url(&quot;#SvgjsLinearGradient1048&quot;)" stroke-linecap="round" class="TopLeft"></path><path d="M1115 8L1127 20" stroke-width="8" stroke="url(&quot;#SvgjsLinearGradient1047&quot;)" stroke-linecap="round" class="BottomRight"></path><path d="M513 14L486 -13" stroke-width="6" stroke="url(&quot;#SvgjsLinearGradient1047&quot;)" stroke-linecap="round" class="BottomRight"></path><path d="M81 14L53 -14" stroke-width="10" stroke="url(&quot;#SvgjsLinearGradient1048&quot;)" stroke-linecap="round" class="TopLeft"></path><path d="M190 3L164 -23" stroke-width="8" stroke="url(&quot;#SvgjsLinearGradient1048&quot;)" stroke-linecap="round" class="TopLeft"></path><path d="M651 8L661 18" stroke-width="10" stroke="url(&quot;#SvgjsLinearGradient1048&quot;)" stroke-linecap="round" class="TopLeft"></path><path d="M1691 15L1719 43" stroke-width="6" stroke="url(&quot;#SvgjsLinearGradient1048&quot;)" stroke-linecap="round" class="TopLeft"></path><path d="M590 38L567 15" stroke-width="6" stroke="url(&quot;#SvgjsLinearGradient1048&quot;)" stroke-linecap="round" class="TopLeft"></path><path d="M1196 35L1184 23" stroke-width="6" stroke="url(&quot;#SvgjsLinearGradient1047&quot;)" stroke-linecap="round" class="BottomRight"></path><path d="M1972 23L1988 39" stroke-width="10" stroke="url(&quot;#SvgjsLinearGradient1048&quot;)" stroke-linecap="round" class="TopLeft"></path><path d="M105 25L76 -4" stroke-width="8" stroke="url(&quot;#SvgjsLinearGradient1048&quot;)" stroke-linecap="round" class="TopLeft"></path><path d="M1675 3L1701 29" stroke-width="6" stroke="url(&quot;#SvgjsLinearGradient1048&quot;)" stroke-linecap="round" class="TopLeft"></path><path d="M1659 29L1631 1" stroke-width="6" stroke="url(&quot;#SvgjsLinearGradient1048&quot;)" stroke-linecap="round" class="TopLeft"></path><path d="M1824 9L1806 -9" stroke-width="8" stroke="url(&quot;#SvgjsLinearGradient1047&quot;)" stroke-linecap="round" class="BottomRight"></path><path d="M1 3L-13 -11" stroke-width="10" stroke="url(&quot;#SvgjsLinearGradient1047&quot;)" stroke-linecap="round" class="BottomRight"></path><path d="M1835 9L1813 -13" stroke-width="6" stroke="url(&quot;#SvgjsLinearGradient1047&quot;)" stroke-linecap="round" class="BottomRight"></path><path d="M182 26L200 44" stroke-width="6" stroke="url(&quot;#SvgjsLinearGradient1047&quot;)" stroke-linecap="round" class="BottomRight"></path><path d="M1611 34L1595 18" stroke-width="10" stroke="url(&quot;#SvgjsLinearGradient1048&quot;)" stroke-linecap="round" class="TopLeft"></path><path d="M1192 11L1166 -15" stroke-width="6" stroke="url(&quot;#SvgjsLinearGradient1047&quot;)" stroke-linecap="round" class="BottomRight"></path><path d="M944 13L958 27" stroke-width="10" stroke="url(&quot;#SvgjsLinearGradient1048&quot;)" stroke-linecap="round" class="TopLeft"></path><path d="M206 24L177 -5" stroke-width="10" stroke="url(&quot;#SvgjsLinearGradient1048&quot;)" stroke-linecap="round" class="TopLeft"></path><path d="M605 36L626 57" stroke-width="10" stroke="url(&quot;#SvgjsLinearGradient1047&quot;)" stroke-linecap="round" class="BottomRight"></path><path d="M1358 15L1333 -10" stroke-width="10" stroke="url(&quot;#SvgjsLinearGradient1047&quot;)" stroke-linecap="round" class="BottomRight"></path><path d="M1845 18L1858 31" stroke-width="6" stroke="url(&quot;#SvgjsLinearGradient1047&quot;)" stroke-linecap="round" class="BottomRight"></path><path d="M614 14L584 -16" stroke-width="6" stroke="url(&quot;#SvgjsLinearGradient1048&quot;)" stroke-linecap="round" class="TopLeft"></path></g><defs><mask id="SvgjsMask1046"><rect width="2000" height="40" fill="#ffffff"></rect></mask><linearGradient x1="0%" y1="0%" x2="100%" y2="100%" id="SvgjsLinearGradient1047"><stop stop-color="rgba(222, 224, 227, 0)" offset="0"></stop><stop stop-color="rgba(222, 224, 227, 1)" offset="1"></stop></linearGradient><linearGradient x1="100%" y1="100%" x2="0%" y2="0%" id="SvgjsLinearGradient1048"><stop stop-color="rgba(222, 224, 227, 0)" offset="0"></stop><stop stop-color="rgba(222, 224, 227, 1)" offset="1"></stop></linearGradient></defs></svg>