<svg xmlns="http://www.w3.org/2000/svg" xmlns:svgjs="http://svgjs.dev/svgjs" xmlns:xlink="http://www.w3.org/1999/xlink" width="2000" height="40" preserveAspectRatio="none" version="1.1" viewBox="0 0 2000 40"><g fill="none" mask="url(&quot;#SvgjsMask1046&quot;)"><path stroke="url(&quot;#SvgjsLinearGradient1047&quot;)" stroke-linecap="round" stroke-width="8" d="M567 11L583 27" class="BottomRight"/><path stroke="url(&quot;#SvgjsLinearGradient1048&quot;)" stroke-linecap="round" stroke-width="10" d="M269 1L244 -24" class="TopLeft"/><path stroke="url(&quot;#SvgjsLinearGradient1047&quot;)" stroke-linecap="round" stroke-width="6" d="M551 8L569 26" class="BottomRight"/><path stroke="url(&quot;#SvgjsLinearGradient1047&quot;)" stroke-linecap="round" stroke-width="10" d="M213 31L237 55" class="BottomRight"/><path stroke="url(&quot;#SvgjsLinearGradient1048&quot;)" stroke-linecap="round" stroke-width="6" d="M1252 39L1224 11" class="TopLeft"/><path stroke="url(&quot;#SvgjsLinearGradient1047&quot;)" stroke-linecap="round" stroke-width="8" d="M1498 16L1521 39" class="BottomRight"/><path stroke="url(&quot;#SvgjsLinearGradient1047&quot;)" stroke-linecap="round" stroke-width="6" d="M632 7L613 -12" class="BottomRight"/><path stroke="url(&quot;#SvgjsLinearGradient1048&quot;)" stroke-linecap="round" stroke-width="10" d="M275 23L247 -5" class="TopLeft"/><path stroke="url(&quot;#SvgjsLinearGradient1047&quot;)" stroke-linecap="round" stroke-width="6" d="M1884 19L1906 41" class="BottomRight"/><path stroke="url(&quot;#SvgjsLinearGradient1047&quot;)" stroke-linecap="round" stroke-width="8" d="M1055 27L1033 5" class="BottomRight"/><path stroke="url(&quot;#SvgjsLinearGradient1048&quot;)" stroke-linecap="round" stroke-width="6" d="M1516 25L1500 9" class="TopLeft"/><path stroke="url(&quot;#SvgjsLinearGradient1048&quot;)" stroke-linecap="round" stroke-width="8" d="M907 18L918 29" class="TopLeft"/><path stroke="url(&quot;#SvgjsLinearGradient1048&quot;)" stroke-linecap="round" stroke-width="8" d="M1396 27L1372 3" class="TopLeft"/><path stroke="url(&quot;#SvgjsLinearGradient1048&quot;)" stroke-linecap="round" stroke-width="10" d="M761 4L742 -15" class="TopLeft"/><path stroke="url(&quot;#SvgjsLinearGradient1048&quot;)" stroke-linecap="round" stroke-width="10" d="M32 34L4 6" class="TopLeft"/><path stroke="url(&quot;#SvgjsLinearGradient1047&quot;)" stroke-linecap="round" stroke-width="8" d="M1688 17L1660 -11" class="BottomRight"/><path stroke="url(&quot;#SvgjsLinearGradient1047&quot;)" stroke-linecap="round" stroke-width="10" d="M1794 25L1811 42" class="BottomRight"/><path stroke="url(&quot;#SvgjsLinearGradient1048&quot;)" stroke-linecap="round" stroke-width="10" d="M694 3L714 23" class="TopLeft"/><path stroke="url(&quot;#SvgjsLinearGradient1047&quot;)" stroke-linecap="round" stroke-width="6" d="M693 8L710 25" class="BottomRight"/><path stroke="url(&quot;#SvgjsLinearGradient1048&quot;)" stroke-linecap="round" stroke-width="8" d="M136 2L150 16" class="TopLeft"/><path stroke="url(&quot;#SvgjsLinearGradient1048&quot;)" stroke-linecap="round" stroke-width="8" d="M1786 38L1800 52" class="TopLeft"/><path stroke="url(&quot;#SvgjsLinearGradient1048&quot;)" stroke-linecap="round" stroke-width="6" d="M745 16L716 -13" class="TopLeft"/><path stroke="url(&quot;#SvgjsLinearGradient1048&quot;)" stroke-linecap="round" stroke-width="10" d="M259 0L283 24" class="TopLeft"/><path stroke="url(&quot;#SvgjsLinearGradient1048&quot;)" stroke-linecap="round" stroke-width="10" d="M1009 34L997 22" class="TopLeft"/><path stroke="url(&quot;#SvgjsLinearGradient1048&quot;)" stroke-linecap="round" stroke-width="10" d="M1812 20L1793 1" class="TopLeft"/><path stroke="url(&quot;#SvgjsLinearGradient1048&quot;)" stroke-linecap="round" stroke-width="10" d="M1185 19L1203 37" class="TopLeft"/><path stroke="url(&quot;#SvgjsLinearGradient1048&quot;)" stroke-linecap="round" stroke-width="8" d="M900 13L883 -4" class="TopLeft"/><path stroke="url(&quot;#SvgjsLinearGradient1047&quot;)" stroke-linecap="round" stroke-width="8" d="M1115 8L1127 20" class="BottomRight"/><path stroke="url(&quot;#SvgjsLinearGradient1047&quot;)" stroke-linecap="round" stroke-width="6" d="M513 14L486 -13" class="BottomRight"/><path stroke="url(&quot;#SvgjsLinearGradient1048&quot;)" stroke-linecap="round" stroke-width="10" d="M81 14L53 -14" class="TopLeft"/><path stroke="url(&quot;#SvgjsLinearGradient1048&quot;)" stroke-linecap="round" stroke-width="8" d="M190 3L164 -23" class="TopLeft"/><path stroke="url(&quot;#SvgjsLinearGradient1048&quot;)" stroke-linecap="round" stroke-width="10" d="M651 8L661 18" class="TopLeft"/><path stroke="url(&quot;#SvgjsLinearGradient1048&quot;)" stroke-linecap="round" stroke-width="6" d="M1691 15L1719 43" class="TopLeft"/><path stroke="url(&quot;#SvgjsLinearGradient1048&quot;)" stroke-linecap="round" stroke-width="6" d="M590 38L567 15" class="TopLeft"/><path stroke="url(&quot;#SvgjsLinearGradient1047&quot;)" stroke-linecap="round" stroke-width="6" d="M1196 35L1184 23" class="BottomRight"/><path stroke="url(&quot;#SvgjsLinearGradient1048&quot;)" stroke-linecap="round" stroke-width="10" d="M1972 23L1988 39" class="TopLeft"/><path stroke="url(&quot;#SvgjsLinearGradient1048&quot;)" stroke-linecap="round" stroke-width="8" d="M105 25L76 -4" class="TopLeft"/><path stroke="url(&quot;#SvgjsLinearGradient1048&quot;)" stroke-linecap="round" stroke-width="6" d="M1675 3L1701 29" class="TopLeft"/><path stroke="url(&quot;#SvgjsLinearGradient1048&quot;)" stroke-linecap="round" stroke-width="6" d="M1659 29L1631 1" class="TopLeft"/><path stroke="url(&quot;#SvgjsLinearGradient1047&quot;)" stroke-linecap="round" stroke-width="8" d="M1824 9L1806 -9" class="BottomRight"/><path stroke="url(&quot;#SvgjsLinearGradient1047&quot;)" stroke-linecap="round" stroke-width="10" d="M1 3L-13 -11" class="BottomRight"/><path stroke="url(&quot;#SvgjsLinearGradient1047&quot;)" stroke-linecap="round" stroke-width="6" d="M1835 9L1813 -13" class="BottomRight"/><path stroke="url(&quot;#SvgjsLinearGradient1047&quot;)" stroke-linecap="round" stroke-width="6" d="M182 26L200 44" class="BottomRight"/><path stroke="url(&quot;#SvgjsLinearGradient1048&quot;)" stroke-linecap="round" stroke-width="10" d="M1611 34L1595 18" class="TopLeft"/><path stroke="url(&quot;#SvgjsLinearGradient1047&quot;)" stroke-linecap="round" stroke-width="6" d="M1192 11L1166 -15" class="BottomRight"/><path stroke="url(&quot;#SvgjsLinearGradient1048&quot;)" stroke-linecap="round" stroke-width="10" d="M944 13L958 27" class="TopLeft"/><path stroke="url(&quot;#SvgjsLinearGradient1048&quot;)" stroke-linecap="round" stroke-width="10" d="M206 24L177 -5" class="TopLeft"/><path stroke="url(&quot;#SvgjsLinearGradient1047&quot;)" stroke-linecap="round" stroke-width="10" d="M605 36L626 57" class="BottomRight"/><path stroke="url(&quot;#SvgjsLinearGradient1047&quot;)" stroke-linecap="round" stroke-width="10" d="M1358 15L1333 -10" class="BottomRight"/><path stroke="url(&quot;#SvgjsLinearGradient1047&quot;)" stroke-linecap="round" stroke-width="6" d="M1845 18L1858 31" class="BottomRight"/><path stroke="url(&quot;#SvgjsLinearGradient1048&quot;)" stroke-linecap="round" stroke-width="6" d="M614 14L584 -16" class="TopLeft"/></g><defs><mask id="SvgjsMask1046"><rect width="2000" height="40" fill="#fff"/></mask><linearGradient id="SvgjsLinearGradient1047" x1="0%" x2="100%" y1="0%" y2="100%"><stop offset="0" stop-color="rgba(222, 224, 227, 0)"/><stop offset="1" stop-color="rgba(222, 224, 227, 1)"/></linearGradient><linearGradient id="SvgjsLinearGradient1048" x1="100%" x2="0%" y1="100%" y2="0%"><stop offset="0" stop-color="rgba(222, 224, 227, 0)"/><stop offset="1" stop-color="rgba(222, 224, 227, 1)"/></linearGradient></defs></svg>