<svg xmlns="http://www.w3.org/2000/svg" xmlns:svgjs="http://svgjs.dev/svgjs" xmlns:xlink="http://www.w3.org/1999/xlink" width="2000" height="100" preserveAspectRatio="none" version="1.1" viewBox="0 0 2000 100"><g fill="none" mask="url(&quot;#SvgjsMask1131&quot;)"><path stroke="rgba(9, 110, 215, 0.81)" stroke-width="2" d="M -347.0985258082982,85 C -280.3,76.2 -146.7,42.2 -13.098525808298158,41 C 120.5,39.8 187.3,80.4 320.9014741917018,79 C 454.5,77.6 521.3,36.2 654.9014741917018,34 C 788.5,31.8 855.3,70 988.9014741917018,68 C 1122.5,66 1189.3,21.4 1322.901474191702,24 C 1456.5,26.6 1523.3,77.8 1656.901474191702,81 C 1790.5,84.2 1922.28,40.6 1990.901474191702,40 C 2059.52,39.4 1998.18,70.4 2000,78"/><path stroke="rgba(9, 110, 215, 0.81)" stroke-width="2" d="M -279.24057036403025,25 C -212.44,36 -78.84,82.6 54.75942963596975,80 C 188.36,77.4 255.16,11.6 388.75942963596975,12 C 522.36,12.4 589.16,79 722.7594296359698,82 C 856.36,85 923.16,29.6 1056.7594296359698,27 C 1190.36,24.4 1257.16,71.2 1390.7594296359698,69 C 1524.36,66.8 1591.16,18.8 1724.7594296359698,16 C 1858.36,13.2 2003.71,55.2 2058.75942963597,55 C 2113.81,54.8 2011.75,23 2000,15"/><path stroke="rgba(9, 110, 215, 0.81)" stroke-width="2" d="M -227.85290263034426,80 C -161.05,73.8 -27.45,50 106.14709736965574,49 C 239.75,48 306.55,79 440.14709736965574,75 C 573.75,71 640.55,33.2 774.1470973696557,29 C 907.75,24.8 974.55,56.8 1108.1470973696557,54 C 1241.75,51.2 1308.55,8.4 1442.1470973696557,15 C 1575.75,21.6 1642.55,83.8 1776.1470973696557,87 C 1909.75,90.2 2065.38,36.8 2110.147097369656,31 C 2154.92,25.2 2022.03,52.6 2000,58"/><path stroke="rgba(9, 110, 215, 0.81)" stroke-width="2" d="M -373.0462828790137,41 C -306.25,45.8 -172.65,70 -39.04628287901371,65 C 94.55,60 161.35,18 294.9537171209863,16 C 428.55,14 495.35,54.8 628.9537171209863,55 C 762.55,55.2 829.35,14.4 962.9537171209863,17 C 1096.55,19.6 1163.35,67.2 1296.9537171209863,68 C 1430.55,68.8 1497.35,23 1630.9537171209863,21 C 1764.55,19 1891.14,52.4 1964.9537171209863,58 C 2038.76,63.6 1992.99,50.8 2000,49"/><path stroke="rgba(9, 110, 215, 0.81)" stroke-width="2" d="M -661.8688682121447,51 C -595.07,47.6 -461.47,30 -327.8688682121446,34 C -194.27,38 -127.47,70.8 6.131131787855395,71 C 139.73,71.2 206.53,38 340.1311317878554,35 C 473.73,32 540.53,54.2 674.1311317878553,56 C 807.73,57.8 874.53,43.2 1008.1311317878553,44 C 1141.73,44.8 1208.53,60.2 1342.1311317878553,60 C 1475.73,59.8 1544.56,40.8 1676.1311317878553,43 C 1807.7,45.2 1935.23,65.4 2000,71"/></g><defs><mask id="SvgjsMask1131"><rect width="2000" height="100" fill="#fff"/></mask></defs></svg>